<svg width="64" height="70" viewBox="0 0 64 70" fill="none" xmlns="http://www.w3.org/2000/svg">
<g filter="url(#filter0_d_27_609)">
<path d="M28.243 22.4441C27.7647 22.3678 27.7445 22.3589 27.9697 22.3233C28.401 22.2551 29.4196 22.348 30.1215 22.5195C31.7601 22.9198 33.2513 23.945 34.843 25.7658L35.2658 26.2495L35.8706 26.1496C38.4191 25.7288 41.0116 26.0633 43.1799 27.0925C43.7764 27.3756 44.717 27.9392 44.8345 28.084C44.8719 28.1302 44.9406 28.4273 44.9871 28.7444C45.1483 29.8414 45.0676 30.6821 44.7411 31.3102C44.5634 31.6519 44.5534 31.7601 44.6729 32.0527C44.7683 32.2861 45.0341 32.4588 45.2974 32.4584C45.8363 32.4577 46.4163 31.5627 46.6851 30.3174L46.7918 29.8227L47.0033 30.0688C48.1631 31.4191 49.0742 33.2605 49.2308 34.5712L49.2715 34.913L49.0765 34.6023C48.7409 34.0677 48.4038 33.7038 47.9721 33.4103C47.1939 32.8812 46.371 32.7011 44.1917 32.5831C42.2235 32.4766 41.1095 32.3038 40.0049 31.9337C38.1256 31.3042 37.1782 30.4658 34.9459 27.4564C33.9543 26.1197 33.3414 25.3802 32.7318 24.7847C31.3465 23.4314 29.9854 22.7218 28.243 22.4441Z" fill="white"/>
<path d="M45.3125 25.2617C45.36 24.3972 45.4737 23.827 45.7023 23.3063C45.7927 23.1001 45.8775 22.9314 45.8905 22.9314C45.9036 22.9314 45.8643 23.0835 45.8031 23.2695C45.637 23.7748 45.6097 24.4661 45.7242 25.2703C45.8695 26.2908 45.952 26.438 46.9977 27.5402C47.4881 28.0572 48.0586 28.7093 48.2654 28.9893L48.6413 29.4983L48.2654 29.1345C47.8055 28.6896 46.748 27.822 46.5144 27.698C46.3577 27.6149 46.3345 27.6162 46.2379 27.7155C46.1488 27.8068 46.1301 27.9442 46.1177 28.5935C46.0985 29.6054 45.9647 30.2549 45.642 30.9042C45.4675 31.2556 45.44 31.1805 45.5979 30.7841C45.7159 30.4881 45.7279 30.358 45.7269 29.3783C45.7251 27.4102 45.4986 26.937 44.1701 26.1264C43.8335 25.921 43.279 25.6249 42.9378 25.4683C42.5966 25.3116 42.3256 25.1752 42.3355 25.165C42.373 25.1264 43.6687 25.5165 44.1902 25.7233C44.9658 26.0311 45.0939 26.0709 45.1881 26.0338C45.2512 26.009 45.2818 25.8193 45.3125 25.2617Z" fill="white"/>
<path d="M28.7232 29.1364C27.7099 27.7547 27.083 25.6359 27.2187 24.0521L27.2607 23.562L27.4913 23.6037C27.9245 23.6819 28.6713 23.9573 29.0209 24.1677C29.9806 24.745 30.396 25.5051 30.8187 27.4569C30.9425 28.0286 31.105 28.6756 31.1797 28.8945C31.3 29.2472 31.7546 30.0706 32.1244 30.6054C32.3906 30.9906 32.2137 31.1731 31.6252 31.1204C30.7263 31.0401 29.5087 30.2076 28.7232 29.1364Z" fill="white"/>
<path d="M44.1487 38.728C39.5428 36.857 37.9207 35.2331 37.9207 32.4929C37.9207 32.0896 37.9344 31.7598 37.9512 31.7598C37.9679 31.7598 38.1462 31.8928 38.3472 32.0554C39.2812 32.8113 40.327 33.134 43.2224 33.5603C44.9262 33.811 45.8851 34.0135 46.7695 34.3095C49.5807 35.2501 51.32 37.159 51.7348 39.7589C51.8553 40.5144 51.7847 41.9311 51.5892 42.6777C51.4349 43.2675 50.9641 44.3305 50.8393 44.3713C50.8047 44.3826 50.7707 44.2487 50.7619 44.0666C50.7145 43.0903 50.2255 42.1399 49.4043 41.4278C48.4705 40.6184 47.216 39.974 44.1487 38.728Z" fill="white"/>
<path d="M40.9047 39.9414C40.8464 39.6187 40.7453 39.2065 40.6801 39.0255L40.5613 38.6963L40.7818 38.9266C41.0869 39.2453 41.328 39.6531 41.5323 40.1962C41.6882 40.6108 41.7058 40.7341 41.7046 41.4078C41.7034 42.0691 41.6839 42.2077 41.54 42.5808C41.3129 43.1692 41.0311 43.5865 40.5583 44.0343C39.7085 44.8391 38.6162 45.2848 37.0398 45.4696C36.7657 45.5016 35.9671 45.5558 35.2649 45.5897C33.4955 45.6754 32.3309 45.8523 31.2845 46.1943C31.134 46.2435 30.9997 46.2734 30.9861 46.2607C30.9437 46.2215 31.6562 45.8262 32.2447 45.5624C33.0744 45.1903 33.9005 44.9873 35.7512 44.7005C36.6655 44.5588 37.6095 44.3868 37.8493 44.3184C40.1133 43.6724 41.2771 42.0051 40.9047 39.9414Z" fill="white"/>
<path d="M42.9491 43.3329C42.3173 42.0156 42.1722 40.7438 42.5183 39.5577C42.5554 39.4309 42.6149 39.3271 42.6508 39.3271C42.6865 39.3271 42.8357 39.4053 42.982 39.5009C43.2732 39.6909 43.8573 40.0111 45.4131 40.8338C47.3546 41.8603 48.4616 42.6552 49.2143 43.5634C49.8736 44.3587 50.2816 45.2644 50.4779 46.369C50.5891 46.9947 50.524 48.5002 50.3584 49.1303C49.8364 51.1168 48.6232 52.6773 46.8928 53.5879C46.6392 53.7212 46.4117 53.8307 46.387 53.8312C46.3624 53.8317 46.4548 53.604 46.5923 53.325C47.1745 52.1449 47.2407 50.9971 46.8007 49.7194C46.5312 48.9372 45.9818 47.9826 44.8724 46.3693C43.5826 44.4936 43.2665 43.9944 42.9491 43.3329Z" fill="white"/>
<path d="M25.8224 50.3718C27.548 48.9346 29.695 47.9135 31.6506 47.6001C32.4935 47.4651 33.8976 47.5187 34.6781 47.7157C35.9291 48.0316 37.0482 48.739 37.6303 49.5818C38.1991 50.4056 38.4431 51.1233 38.6972 52.7205C38.7974 53.3504 38.9064 53.9832 38.9395 54.1264C39.1302 54.9541 39.5015 55.6157 39.9616 55.948C40.6924 56.4756 41.9508 56.5085 43.1887 56.0321C43.3988 55.9512 43.5812 55.8954 43.5941 55.908C43.6389 55.952 43.0156 56.3635 42.5759 56.5802C41.9841 56.8719 41.5135 56.9845 40.8884 56.9845C39.7546 56.9845 38.8133 56.4155 38.0279 55.2555C37.8734 55.0272 37.526 54.3433 37.2559 53.7358C36.4266 51.8699 36.0171 51.3015 35.0542 50.6795C34.2163 50.1382 33.1356 50.0412 32.3227 50.4344C31.2547 50.9509 30.9568 52.2971 31.7216 53.1503C32.0256 53.4894 32.5926 53.7819 33.056 53.8388C33.9232 53.9451 34.6685 53.2944 34.6685 52.4306C34.6685 51.8699 34.45 51.5498 33.8998 51.305C33.1487 50.9705 32.3411 51.3614 32.345 52.0576C32.3466 52.3545 32.4777 52.541 32.7793 52.6756C32.9729 52.762 32.9774 52.7688 32.8196 52.7365C32.1302 52.5955 31.9687 51.7757 32.523 51.2315C33.1884 50.5781 34.5644 50.8665 35.0369 51.7583C35.2354 52.1328 35.2585 52.8788 35.0854 53.3293C34.698 54.3376 33.5687 54.8678 32.4229 54.5793C31.6429 54.3828 31.3253 54.1702 30.3848 53.2145C28.7506 51.5539 28.1161 51.2321 25.7601 50.8692L25.3087 50.7997L25.8224 50.3718Z" fill="white"/>
<path fill-rule="evenodd" clip-rule="evenodd" d="M13.4836 13.2023C18.8298 19.724 27.0722 29.878 27.4814 30.4464C27.8192 30.9158 27.692 31.3378 27.1132 31.6685C26.7914 31.8524 26.1296 32.0388 25.7983 32.0388C25.4236 32.0388 25.0014 31.8574 24.694 31.5643C24.4767 31.3572 23.5997 30.0408 21.575 26.8835C20.026 24.4676 18.7296 22.4635 18.6942 22.4299C18.6124 22.3523 18.6138 22.3549 21.4171 27.3962C23.1774 30.5618 23.7716 31.681 23.7716 31.8306C23.7716 32.135 23.689 32.2951 23.3152 32.714C22.6924 33.4123 22.414 34.1971 22.213 35.8213C21.9877 37.6419 21.354 38.9279 19.598 41.129C18.5702 42.4174 18.402 42.6536 18.1426 43.1729C17.8159 43.8269 17.7261 44.1931 17.6897 45.019C17.6512 45.8921 17.7262 46.4561 17.9915 47.2908C18.2238 48.0217 18.4664 48.5043 19.0864 49.4694C19.6215 50.3024 19.9296 50.9214 19.9296 51.1636C19.9296 51.3562 19.9662 51.3564 20.7954 51.1683C22.7796 50.718 24.3908 49.9258 25.2969 48.9553C25.8577 48.3544 25.9894 48.0226 25.9937 47.1994C25.9964 46.6608 25.9777 46.548 25.8328 46.2383C25.5971 45.734 25.1678 45.3148 24.2218 44.6648C22.9824 43.8132 22.4529 43.1276 22.3066 42.1846C22.1867 41.411 22.3259 40.8652 23.0116 39.4208C23.7213 37.9256 23.8972 37.2885 24.0162 35.7815C24.093 34.8079 24.1995 34.4238 24.4777 34.1156C24.7681 33.7942 25.0294 33.6854 25.7477 33.5867C26.9189 33.426 27.6648 33.1214 28.2777 32.5536C28.8095 32.0612 29.032 31.5865 29.0662 30.8721L29.0921 30.3306L28.7949 29.9824C27.7187 28.7212 12.7629 12.2109 12.6967 12.2109C12.6826 12.2109 13.0367 12.6571 13.4836 13.2023ZM20.5338 46.0069C20.777 45.5737 20.6478 45.0169 20.2407 44.7449C19.8562 44.4879 19.2588 44.609 19.2588 44.9439C19.2588 45.0461 19.3151 45.1205 19.4418 45.1861C19.6552 45.2964 19.6706 45.4206 19.5028 45.6741C19.3327 45.931 19.3465 46.1569 19.5415 46.3102C19.8558 46.5576 20.3007 46.4216 20.5338 46.0069Z" fill="white"/>
<path fill-rule="evenodd" clip-rule="evenodd" d="M29.7705 33.7049C29.2172 33.8796 28.6793 34.4819 28.5128 35.1134C28.4111 35.4988 28.4688 36.1746 28.621 36.3835C28.8668 36.7205 29.1045 36.8094 29.7482 36.8047C31.0083 36.7957 32.1038 36.2406 32.2312 35.5466C32.3357 34.9778 31.8545 34.1895 31.1917 33.8434C30.8497 33.6649 30.1224 33.594 29.7705 33.7049ZM31.2437 34.8881C31.438 34.6045 31.353 34.298 31.0225 34.0907C30.393 33.696 29.4412 34.0226 29.4412 34.6333C29.4412 34.9373 29.9376 35.269 30.3926 35.269C30.6954 35.269 31.1098 35.0835 31.2437 34.8881Z" fill="white"/>
</g>
<defs>
<filter id="filter0_d_27_609" x="10.9231" y="12.2109" width="42.6442" height="48.3201" filterUnits="userSpaceOnUse" color-interpolation-filters="sRGB">
<feFlood flood-opacity="0" result="BackgroundImageFix"/>
<feColorMatrix in="SourceAlpha" type="matrix" values="0 0 0 0 0 0 0 0 0 0 0 0 0 0 0 0 0 0 127 0" result="hardAlpha"/>
<feOffset dy="1.77321"/>
<feGaussianBlur stdDeviation="0.886605"/>
<feComposite in2="hardAlpha" operator="out"/>
<feColorMatrix type="matrix" values="0 0 0 0 0 0 0 0 0 0 0 0 0 0 0 0 0 0 0.25 0"/>
<feBlend mode="normal" in2="BackgroundImageFix" result="effect1_dropShadow_27_609"/>
<feBlend mode="normal" in="SourceGraphic" in2="effect1_dropShadow_27_609" result="shape"/>
</filter>
</defs>
</svg>
